<?xml version="1.0" encoding="utf-8"?>
<!-- Generator: Adobe Illustrator 16.0.4, SVG Export Plug-In . SVG Version: 6.00 Build 0)  -->
<!DOCTYPE svg PUBLIC "-//W3C//DTD SVG 1.1//EN" "http://www.w3.org/Graphics/SVG/1.1/DTD/svg11.dtd">
<svg version="1.1" id="Layer_1" xmlns="http://www.w3.org/2000/svg" xmlns:xlink="http://www.w3.org/1999/xlink" x="0px" y="0px"
	 width="438.83px" height="431.835px" viewBox="86.557 179.589 438.83 431.835"
	 enable-background="new 86.557 179.589 438.83 431.835" xml:space="preserve">
<path opacity="0.3" fill="#1A1A1A" enable-background="new    " d="M296.15,242.219L296.15,242.219l-38.381,13.957l7.051-40.199l0,0
	l-31.33-26.315l0,0l-38.382,13.957l0,0l-7.051,40.199l-31.258-26.242l0,0l-38.455,13.957l0,0l-7.124,40.272l0,0l31.258,26.242
	l-38.309,13.957l0,0l-7.124,40.272l0,0l31.331,26.314l0,0l38.381-13.957l-7.051,40.199l0,0l31.331,26.314l0,0l38.454-13.957l0,0
	l7.124-40.199l31.258,26.242l0,0l38.455-13.957l0,0l6.979-40.272l0,0l-31.258-26.242l38.309-13.957l0,0l7.124-40.272l0,0
	L296.15,242.219z M205.211,350.676l38.236-13.957l-7.051,40.126L205.211,350.676z M219.241,270.205l-38.236,13.957l7.051-40.126
	L219.241,270.205z M142.623,298.192l38.236-13.957l-7.051,40.126L142.623,298.192z M205.066,350.676l-38.237,13.957l7.051-40.126
	L205.066,350.676z M173.881,324.434l7.051-40.199l38.382-13.957l31.258,26.242l-7.051,40.126l-38.382,13.957L173.881,324.434z
	 M250.645,296.52l31.185,26.169l-38.236,13.957L250.645,296.52z M219.387,270.205l38.236-13.957l-7.051,40.126L219.387,270.205z
	 M195.107,203.691l38.381-13.957l31.258,26.242l-7.124,40.199l-38.382,13.957l-31.258-26.242L195.107,203.691z M111.22,271.877
	l7.124-40.199l38.382-13.957l31.258,26.242l-7.124,40.199l-38.309,13.957L111.22,271.877z M128.303,378.59l-31.258-26.242
	l7.124-40.199l38.382-13.957l31.258,26.242l-7.124,40.199L128.303,378.59z M229.273,417.189l-38.309,13.957l-31.258-26.242
	l7.124-40.199l38.382-13.957l31.258,26.242L229.273,417.189z M313.16,349.004l-7.124,40.199l-38.381,13.957l-31.258-26.242
	l7.124-40.199l38.382-13.957L313.16,349.004z M320.284,308.732l-38.382,13.957l-31.258-26.242l7.124-40.199l38.381-13.957
	l31.258,26.242L320.284,308.732z"/>
<g>
	<g>
		<path fill="#747474" d="M102.206,610.334c-0.291-0.29-0.582-0.581-0.582-0.872c0-0.581,0.582-0.872,0.872-0.872h0.291
			c1.745,0.581,2.908,0.872,4.943,0.872c2.617,0,4.943-1.454,4.943-4.361c0-2.617-2.617-3.489-4.943-4.07
			c-3.198-0.873-6.397-2.036-6.397-6.106c0-3.78,3.199-5.524,6.761-5.524c1.454,0,3.489,0.29,4.943,0.872
			c0.291,0.291,0.582,0.581,0.582,0.872c0,0.582-0.582,0.872-0.872,0.872h-0.291c-1.454-0.581-2.617-0.872-4.071-0.872
			c-2.617,0-4.652,0.872-4.652,3.78c0,2.617,2.617,3.489,4.943,4.07c3.198,0.873,6.397,2.326,6.397,6.106s-3.199,6.106-7.051,6.106
			C106.277,611.207,103.951,611.207,102.206,610.334z"/>
	</g>
	<g>
		<path fill="#747474" d="M134.917,609.172c0.582,0,0.873,0.29,0.873,0.872c0,0.581-0.582,0.872-0.873,0.872h-10.831
			c-0.872,0-2.035-0.581-2.035-1.744v-17.229c0-1.454,1.454-2.617,2.908-2.617h9.377c0.582,0,0.873,0.291,0.873,0.872
			c0,0.582-0.582,0.873-0.873,0.873h-9.305c-0.291,0-0.872,0.29-0.872,0.872v6.761h9.377c0.582,0,0.872,0.29,0.872,0.872
			c0,0.581-0.582,0.872-0.872,0.872h-9.377v8.505h10.831L134.917,609.172L134.917,609.172z"/>
	</g>
	<g>
		<path fill="#747474" d="M156.58,609.172c0.582,0,0.873,0.29,0.873,0.872c0,0.581-0.582,0.872-0.873,0.872h-10.831
			c-0.873,0-2.036-0.581-2.036-1.744v-17.229c0-1.454,1.454-2.617,2.908-2.617h9.377c0.582,0,0.873,0.291,0.873,0.872
			c0,0.582-0.582,0.873-0.873,0.873h-9.377c-0.291,0-0.872,0.29-0.872,0.872v6.761h9.377c0.582,0,0.872,0.29,0.872,0.872
			c0,0.581-0.582,0.872-0.872,0.872h-9.377v8.505h10.831V609.172z"/>
	</g>
	<g>
		<path fill="#747474" d="M164.794,611.207c-0.873,0-1.163-0.582-1.163-1.163c0-0.872,0.582-1.454,1.163-1.454
			c0.872,0,1.163,0.582,1.163,1.454C165.958,610.625,165.376,611.207,164.794,611.207z"/>
	</g>
	<g>
		<path fill="#747474" d="M200.414,608.227h0.291c0.582,0,0.873,0.291,0.873,0.872c0,0.291-0.291,0.582-0.582,0.872
			c-1.745,0.873-4.362,1.163-6.106,1.163c-4.071,0-7.051-2.035-7.633-6.105c-0.291-1.745-0.291-3.199-0.291-4.943
			c0-1.745,0-3.198,0.291-4.943c0.582-4.07,3.489-6.106,7.633-6.106c1.745,0,4.362,0.291,6.106,1.163
			c0.291,0.291,0.582,0.582,0.582,0.873c0,0.581-0.582,0.872-0.873,0.872s-0.291,0-0.582,0c-1.745-0.872-3.198-1.163-5.234-1.163
			c-2.908,0-5.234,1.454-5.524,4.361c-0.291,1.454-0.291,3.198-0.291,4.652s0,3.198,0.291,4.652
			c0.291,3.198,2.326,4.361,5.524,4.361C197.215,609.462,198.378,609.172,200.414,608.227z"/>
	</g>
	<g>
		<path fill="#747474" d="M224.402,590.417v19.917c0,0.582-0.582,0.873-0.872,0.873c-0.582,0-0.873-0.291-0.873-0.873v-9.377
			h-10.541v9.377c0,0.582-0.582,0.873-0.872,0.873c-0.582,0-0.873-0.291-0.873-0.873v-19.917c0-0.582,0.582-0.873,0.873-0.873
			c0.582,0,0.872,0.291,0.872,0.873v8.796h10.541v-8.796c0-0.582,0.582-0.873,0.873-0.873
			C223.821,589.544,224.402,589.835,224.402,590.417z"/>
	</g>
	<g>
		<path fill="#747474" d="M241.122,590.998l5.815,18.973v0.291c0,0.582-0.582,0.872-0.872,0.872c-0.291,0-0.873-0.29-0.873-0.581
			l-1.745-6.106h-8.505l-1.745,6.106c0,0.291-0.582,0.581-0.873,0.581c-0.582,0-0.872-0.29-0.872-0.872v-0.291l5.815-18.973
			c0.291-0.872,1.163-1.454,2.035-1.454C239.886,589.544,240.831,590.126,241.122,590.998z M242.576,602.702l-3.489-11.122
			c0,0,0-0.291-0.291-0.291c-0.291,0-0.291,0-0.291,0.291l-3.489,11.122H242.576z"/>
	</g>
	<g>
		<path fill="#747474" d="M255.733,591.58v18.682c0,0.582-0.582,0.872-0.872,0.872c-0.582,0-0.873-0.29-0.873-0.872V591.87
			c0-1.453,0.873-2.326,2.326-2.326c0.873,0,1.745,0.582,2.036,1.454l8.505,18.392c0,0,0,0.291,0.291,0.291
			c0.291,0,0.291-0.291,0.291-0.291v-18.683c0-0.581,0.582-0.872,0.872-0.872c0.582,0,0.873,0.291,0.873,0.872v18.392
			c0,1.454-0.873,2.326-2.326,2.326c-0.873,0-1.745-0.581-2.036-1.163l-8.505-18.392c0,0,0-0.29-0.291-0.29
			C255.733,591.289,255.733,591.58,255.733,591.58z"/>
	</g>
	<g>
		<path fill="#747474" d="M279.067,595.724c-0.291,1.453-0.291,3.198-0.291,4.652c0,1.453,0,3.198,0.291,4.652
			c0.291,3.198,2.326,4.361,5.524,4.361c1.163,0,4.071-0.582,4.943-1.163c0.291,0,0.291,0,0.291-0.291v-6.106h-3.198
			c-0.582,0-0.873-0.29-0.873-0.872c0-0.581,0.582-0.872,0.873-0.872h3.489c1.163,0,2.035,0.581,2.035,1.744v6.106
			c0,0.872-0.582,1.745-1.454,2.035c-1.454,0.582-4.071,1.163-5.815,1.163c-4.071,0-7.051-2.035-7.633-6.105
			c-0.291-1.745-0.291-3.199-0.291-4.943c0-1.745,0-3.198,0.291-4.943c0.582-4.07,3.489-6.106,7.633-6.106
			c1.745,0,4.361,0.291,6.106,1.163c0.291,0.291,0.582,0.291,0.582,0.873c0,0.581-0.582,0.872-0.872,0.872c-0.291,0-0.291,0-0.582,0
			c-1.745-0.872-3.199-1.163-5.234-1.163C281.757,591.289,279.649,592.452,279.067,595.724z"/>
	</g>
	<g>
		<path fill="#747474" d="M312.724,609.172c0.582,0,0.873,0.29,0.873,0.872c0,0.581-0.582,0.872-0.873,0.872h-10.831
			c-0.872,0-2.035-0.581-2.035-1.744v-17.229c0-1.454,1.454-2.617,2.908-2.617h9.377c0.581,0,0.872,0.291,0.872,0.872
			c0,0.582-0.581,0.873-0.872,0.873h-9.377c-0.291,0-0.873,0.29-0.873,0.872v6.761h9.378c0.581,0,0.872,0.29,0.872,0.872
			c0,0.581-0.582,0.872-0.872,0.872h-9.378v8.505h10.831V609.172z"/>
	</g>
	<g>
		<path fill="#747474" d="M320.938,611.207c-0.872,0-1.163-0.582-1.163-1.163c0-0.872,0.581-1.454,1.163-1.454
			c0.581,0,1.163,0.582,1.163,1.454C322.102,610.625,321.52,611.207,320.938,611.207z"/>
	</g>
</g>
<g>
	<g>
		<path fill="#010101" d="M120.597,545.129c-1.745,1.454-6.106,1.745-7.633,1.745c-3.78,0-7.342-0.873-9.668-3.489
			c-2.617-3.199-2.326-7.633-1.454-11.994l5.234-29.805c0.291-1.163,1.454-1.163,2.326-1.163c1.163,0,2.036,0,1.745,1.163
			l-1.745,9.959h15.193c1.163,0,1.163,0.872,1.163,2.035c-0.291,1.163-0.582,2.036-1.745,2.036h-15.193l-2.908,16.064
			c-1.163,7.052-0.582,11.704,7.633,11.704c1.745,0,3.199-0.291,4.943-0.873c0.291,0,0.582-0.29,0.872-0.29
			c0.582,0,1.163,0.29,1.163,1.163C120.888,543.966,120.888,544.838,120.597,545.129z"/>
	</g>
	<g>
		<path fill="#010101" d="M157.162,514.671c2.617,3.198,2.036,7.924,1.454,11.994l-0.873,4.652
			c-0.872,4.361-1.745,8.796-5.524,11.994c-3.199,2.617-7.342,3.489-10.832,3.489c-7.923,0-13.739-3.489-12.285-11.703
			c1.454-8.505,8.505-11.704,16.356-11.704c3.199,0,6.397,0.582,9.377,1.163c0.873-6.396-1.163-9.668-7.923-9.668
			c-3.199,0-6.106,0.582-9.668,1.454c-0.291,0-0.582,0-0.582,0c-1.163,0-1.163-0.872-1.163-2.035
			c0.291-0.872,0.291-1.745,1.163-2.035c3.489-1.163,7.342-1.454,10.832-1.454C151.346,510.891,154.835,511.763,157.162,514.671z
			 M153.382,531.391l0.582-3.199c-2.908-0.581-6.106-0.872-9.377-0.872c-5.525,0-10.25,1.745-11.413,7.924
			c-1.163,6.105,3.199,7.923,8.505,7.923C149.893,543.094,152.219,538.369,153.382,531.391z"/>
	</g>
	<g>
		<path fill="#010101" d="M190.237,512.054c0.873,0.291,1.163,0.872,0.873,1.745c-0.582,1.453-1.163,2.035-2.326,2.035
			c-0.291,0-0.582,0-0.873-0.291c-1.454-0.581-3.198-0.872-4.943-0.872c-9.668,0-10.832,7.051-12.285,14.32l-2.908,16.356
			c-0.291,1.162-1.454,1.162-2.326,1.162c-0.873,0-2.036,0-1.745-1.162l2.908-16.938c0.291-2.036,0.872-4.362,1.454-6.761
			c2.326-7.342,8.214-11.122,15.484-11.122C185.512,510.891,188.783,511.182,190.237,512.054z"/>
	</g>
	<g>
		<path fill="#010101" d="M222.367,514.671c2.617,3.198,2.035,7.633,1.454,11.994l-2.908,16.356
			c-0.872,4.361-1.745,8.795-5.524,11.994c-3.199,2.616-7.342,3.489-10.832,3.489c-3.78,0-8.505-1.163-11.413-2.908
			c-0.582-0.291-1.454-1.163-0.872-2.035c0.872-1.163,1.744-1.745,2.326-1.745c0.291,0,0.581,0,0.872,0.291
			c2.908,1.454,5.815,2.617,9.668,2.617c8.214,0,10.25-4.652,11.704-11.703v-0.291c-3.198,1.454-6.76,2.326-9.959,2.326
			c-7.342,0-12.285-3.78-11.994-11.122c0-2.035,0.291-3.78,0.582-5.815c0.291-2.035,0.872-3.78,1.454-5.815
			c2.326-7.633,8.505-11.122,15.774-11.122C216.261,510.891,220.041,511.763,222.367,514.671z M217.424,538.659l2.036-12.285
			c1.163-7.051,0.582-11.703-7.633-11.703c-8.796,0-11.122,5.815-12.285,13.157s-1.454,13.157,7.633,13.157
			C210.664,541.276,214.153,540.113,217.424,538.659z"/>
	</g>
	<g>
		<path fill="#010101" d="M253.625,540.404c0.291,0,0.582-0.291,1.163-0.291c1.163,0,1.454,0.872,1.745,2.035
			c0.291,0.873-0.582,1.454-1.454,1.745c-3.489,1.744-8.796,2.907-12.576,2.907c-7.342,0-12.285-3.489-11.994-11.122
			c0-2.326,0.582-4.652,0.872-7.051c0.291-2.326,0.873-4.652,1.454-7.052c2.326-7.342,8.795-11.121,15.774-11.121
			c7.051,0,12.285,3.489,11.994,11.121c0,0.582,0,0.873,0,1.454c-0.582,4.071-4.071,7.052-8.214,7.052h-16.865
			c-1.163,7.342-1.163,12.866,7.633,12.866C246.937,543.094,250.136,541.857,253.625,540.404z M236.396,526.374h16.938
			c2.036,0,2.908-1.163,3.199-3.198c0.872-5.524-2.908-8.505-8.214-8.505C240.177,514.671,237.56,519.687,236.396,526.374z"/>
	</g>
	<g>
		<path fill="#010101" d="M326.172,536.043c-2.326,7.342-8.796,11.121-15.774,11.121c-3.779,0-6.396-0.872-9.668-2.326
			l-2.326,12.576c-0.29,1.163-1.454,1.163-2.326,1.163c-1.163,0-2.036,0-1.745-1.163l4.943-28.932
			c0.29-2.035,0.872-4.07,1.453-6.106c2.326-7.342,8.796-11.122,15.774-11.122s11.994,3.489,11.994,11.122
			c0,2.326-0.581,4.652-0.872,7.052C327.335,531.391,326.754,533.717,326.172,536.043z M315.923,514.671
			c-9.668,0-11.122,6.761-12.576,14.029l-2.035,11.704c2.617,1.453,6.106,2.617,9.668,2.617c9.668,0,11.122-6.761,12.285-14.03
			C324.719,521.432,325.591,514.671,315.923,514.671z"/>
	</g>
	<g>
		<path fill="#010101" d="M393.413,522.013c0,2.326-0.582,4.652-0.872,7.052c-0.291,2.398-0.873,4.652-1.454,7.051
			c-2.326,7.342-8.796,11.122-15.774,11.122c-7.342,0-12.285-3.489-11.994-11.122c0-2.326,0.581-4.652,0.872-7.051
			c0.291-2.399,0.872-4.652,1.454-7.052c2.326-7.342,8.505-11.122,15.774-11.122C388.761,510.891,393.413,514.671,393.413,522.013z
			 M388.179,528.991c1.454-7.633,2.036-14.029-7.342-14.029c-9.668,0-11.122,6.76-12.575,14.029
			c-1.454,7.633-2.036,14.03,7.633,14.03C385.199,543.094,386.726,536.624,388.179,528.991z"/>
	</g>
	<g>
		<path fill="#010101" d="M422.054,540.404c0.291,0,0.582-0.291,1.163-0.291c1.163,0,1.163,0.872,1.454,2.035
			c0.291,0.873-0.582,1.454-1.163,1.745c-3.489,1.744-8.505,2.907-12.285,2.907c-7.342,0-12.285-3.489-11.994-11.122
			c0-2.326,0.581-4.652,0.872-7.051c0.291-2.326,0.872-4.652,1.454-7.052c2.326-7.342,8.505-11.121,15.774-11.121
			c3.489,0,8.214,1.163,11.122,2.907c0.581,0.291,0.581,0.872,0.581,1.745c-0.581,1.453-0.872,2.035-2.035,2.035
			c-0.291,0-0.582,0-0.872-0.291c-2.908-1.454-5.525-2.617-9.087-2.617c-9.668,0-11.122,6.761-12.576,14.03
			c-1.453,7.633-2.035,14.029,7.633,14.029C415.366,543.094,418.564,541.857,422.054,540.404z"/>
	</g>
	<g>
		<path fill="#010101" d="M467.996,545.42c-0.873-0.291-1.745-1.163-1.163-2.035c0.872-1.163,1.453-2.035,2.326-2.035
			c0.29,0,0.29,0,0.581,0c2.908,0.872,5.815,1.453,9.087,1.453c4.07,0,8.214-1.453,9.086-6.105c0.873-4.362-3.779-5.234-7.051-6.106
			c-5.524-1.163-10.831-3.489-9.668-10.25c1.163-7.051,7.633-9.668,14.029-9.668c2.617,0,5.524,0.291,7.924,1.163
			c0.872,0.291,1.163,0.872,0.872,1.744c-0.581,1.163-0.872,2.036-2.035,2.036c-0.291,0-0.291,0-0.582,0
			c-2.326-0.582-4.361-1.163-6.76-1.163c-3.78,0-8.215,1.163-9.087,5.815c-0.872,4.361,3.78,5.524,7.052,6.105
			c5.524,1.163,11.121,3.199,9.668,10.25c-1.163,7.052-7.633,9.959-14.03,9.959C475.265,547.164,470.903,546.583,467.996,545.42z"/>
	</g>
	<g>
		<path fill="#010101" d="M360.12,512.054c0.872,0.291,1.163,0.872,0.872,1.745c-0.582,1.453-1.163,2.035-2.326,2.035
			c-0.291,0-0.582,0-0.872-0.291c-1.454-0.581-3.199-0.872-4.943-0.872c-9.668,0-10.831,7.051-12.285,14.32l-2.908,16.356
			c-0.29,1.162-1.453,1.162-2.326,1.162c-0.872,0-2.035,0-1.744-1.162l2.907-16.938c0.291-2.036,0.873-4.362,1.454-6.761
			c2.326-7.342,8.215-11.122,15.483-11.122C355.395,510.891,358.303,511.182,360.12,512.054z"/>
	</g>
	<g>
		<path fill="#010101" d="M286.991,545.129c-1.745,1.454-6.106,1.745-7.633,1.745c-3.78,0-7.342-0.873-9.668-3.489
			c-2.617-3.199-2.326-7.633-1.454-11.994l5.234-29.805c0.291-1.163,1.454-1.163,2.326-1.163c1.163,0,2.035,0,1.745,1.163
			l-1.745,9.959h15.483c1.163,0,1.163,0.872,1.163,2.035c-0.291,1.163-0.582,2.036-1.745,2.036h-15.193l-2.908,16.064
			c-1.163,7.052-0.582,11.704,7.633,11.704c1.745,0,3.198-0.291,4.943-0.873c0.291,0,0.582-0.29,0.873-0.29
			c0.582,0,1.163,0.29,1.163,1.163C287.572,543.966,287.572,544.838,286.991,545.129z"/>
	</g>
	<g>
		<path fill="#010101" d="M456.001,540.404c0.291,0,0.582-0.291,1.163-0.291c1.163,0,1.454,0.872,1.745,2.035
			c0.291,0.873-0.582,1.454-1.454,1.745c-3.489,1.744-8.796,2.907-12.575,2.907c-7.343,0-12.285-3.489-11.995-11.122
			c0-2.326,0.582-4.652,0.873-7.051c0.29-2.326,0.872-4.652,1.453-7.052c2.326-7.342,8.796-11.121,15.774-11.121
			s12.285,3.489,11.994,11.121c0,0.582,0,0.873,0,1.454c-0.581,4.071-4.07,7.052-8.214,7.052h-16.938
			c-1.163,7.342-1.163,12.866,7.633,12.866C448.95,543.094,452.512,541.857,456.001,540.404z M438.41,526.374h16.937
			c2.036,0,2.908-1.163,3.199-3.198c0.872-5.524-2.908-8.505-8.215-8.505C442.263,514.671,439.937,519.687,438.41,526.374z"/>
	</g>
	<g>
		<path fill="#010101" d="M499.254,545.42c-0.873-0.291-1.745-1.163-1.163-2.035c0.872-1.163,1.453-2.035,2.326-2.035
			c0.29,0,0.29,0,0.581,0c2.908,0.872,5.815,1.453,9.087,1.453c4.07,0,8.214-1.453,9.087-6.105c0.872-4.362-3.78-5.234-7.052-6.106
			c-5.524-1.163-10.831-3.489-9.668-10.25c1.163-7.051,7.633-9.668,14.029-9.668c2.617,0,5.524,0.291,7.924,1.163
			c0.872,0.291,1.163,0.872,0.872,1.744c-0.581,1.163-0.872,2.036-2.035,2.036c-0.291,0-0.291,0-0.582,0
			c-2.326-0.582-4.361-1.163-6.76-1.163c-3.78,0-8.215,1.163-9.087,5.815c-0.872,4.361,3.78,5.524,7.052,6.105
			c5.524,1.163,11.122,3.199,9.668,10.25c-1.163,7.052-7.633,9.959-14.03,9.959C506.596,547.164,502.161,546.583,499.254,545.42z"/>
	</g>
</g>
<g>
	<path fill="#649690" d="M327.335,279.219c-2.326,0-4.725-0.8-6.688-2.399l-93.919-78.799c-4.434-3.708-4.943-10.25-1.309-14.684
		c3.708-4.434,10.25-5.016,14.684-1.309l93.919,78.799c4.434,3.707,4.942,10.25,1.308,14.684
		C333.224,277.983,330.315,279.219,327.335,279.219z"/>
</g>
<g>
	<path fill="#EEC41A" d="M189.365,441.833c-4.289,0-8.287-2.617-9.814-6.906c-1.962-5.379,0.873-11.34,6.252-13.303l116.672-41.943
		c5.379-1.963,11.34,0.872,13.303,6.251s-0.872,11.339-6.252,13.302l-116.672,41.944C191.763,441.688,190.6,441.833,189.365,441.833
		z"/>
</g>
<g>
	<line fill="none" x1="96.972" y1="353.875" x2="118.271" y2="231.969"/>
	<path fill="#A11C3D" d="M96.972,364.27c-0.582,0-1.163-0.073-1.817-0.146c-5.67-1.018-9.45-6.396-8.433-12.067l21.299-121.906
		c1.018-5.67,6.397-9.45,12.067-8.432s9.45,6.397,8.432,12.067l-21.299,121.906C106.35,360.708,101.915,364.27,96.972,364.27z"/>
</g>
<g>
	<path fill="#018AB9" d="M149.529,268.606c-0.582,0-1.236-0.073-1.817-0.146c-5.67-1.018-9.45-6.397-8.432-12.067l7.124-40.271
		c1.018-5.67,6.469-9.45,12.067-8.433c5.67,1.018,9.45,6.397,8.432,12.067l-7.124,40.272
		C158.906,265.044,154.545,268.606,149.529,268.606z"/>
</g>
<g>
	<path fill="#53110F" d="M128.303,389.349c-0.582,0-1.236-0.073-1.817-0.146c-5.67-1.018-9.45-6.397-8.433-12.067l7.124-40.199
		c1.018-5.67,6.397-9.45,12.067-8.432c5.67,1.018,9.45,6.397,8.433,12.067l-7.124,40.199
		C137.607,385.787,133.246,389.349,128.303,389.349z"/>
</g>
<g>
	<path fill="#4F9E4E" d="M226.292,240.692c-2.326,0-4.725-0.799-6.688-2.399l-31.331-26.242c-4.434-3.708-4.943-10.25-1.308-14.684
		c3.707-4.361,10.25-4.943,14.684-1.309l31.331,26.242c4.435,3.707,4.943,10.25,1.309,14.684
		C232.253,239.384,229.273,240.692,226.292,240.692z"/>
</g>
<g>
	<path fill="#0D6D65" d="M320.211,319.491c-2.326,0-4.725-0.799-6.688-2.399l-31.33-26.242c-4.435-3.708-4.943-10.25-1.309-14.684
		c3.707-4.361,10.25-4.943,14.684-1.309l31.331,26.242c4.434,3.708,4.942,10.25,1.309,14.684
		C326.172,318.183,323.191,319.491,320.211,319.491z"/>
</g>
<g>
	<path fill="#018AB9" d="M274.706,373.647c-4.216,0-8.214-2.617-9.741-6.833c-1.962-5.379,0.8-11.34,6.251-13.303l38.382-13.957
		c5.379-1.963,11.34,0.799,13.303,6.251c1.962,5.379-0.8,11.34-6.252,13.303l-38.382,13.957
		C277.104,373.501,275.941,373.647,274.706,373.647z"/>
</g>
<g>
	<path fill="#91BDAE" d="M205.066,361.362c-2.327,0-4.725-0.799-6.688-2.399l-31.331-26.242c-4.434-3.708-4.943-10.25-1.309-14.684
		c3.708-4.362,10.25-5.016,14.684-1.309l31.331,26.242c4.434,3.708,4.943,10.25,1.309,14.684
		C210.954,360.126,208.046,361.362,205.066,361.362z"/>
</g>
<g>
	<path fill="#4A635B" d="M243.448,347.405c-0.582,0-1.236-0.073-1.817-0.145c-5.67-1.018-9.45-6.397-8.432-12.067l7.124-40.271
		c1.018-5.67,6.47-9.45,12.067-8.433c5.67,1.018,9.45,6.397,8.432,12.067l-7.124,40.271
		C252.825,343.843,248.391,347.405,243.448,347.405z"/>
</g>
<g>
	<path fill="#B8BB63" d="M180.859,294.921c-4.216,0-8.214-2.617-9.741-6.833c-1.963-5.379,0.8-11.34,6.251-13.303l38.382-13.957
		c5.379-1.963,11.34,0.799,13.303,6.251c1.963,5.379-0.8,11.34-6.251,13.303l-38.382,13.957
		C183.258,294.703,182.022,294.921,180.859,294.921z"/>
</g>
<g>
	<path fill="#E28925" d="M159.561,415.591c-4.216,0-8.214-2.617-9.741-6.833c-1.963-5.379,0.799-11.34,6.251-13.303l38.382-13.957
		c5.379-1.963,11.34,0.799,13.303,6.251c1.962,5.379-0.8,11.34-6.251,13.303l-38.382,13.957
		C161.959,415.373,160.724,415.591,159.561,415.591z"/>
</g>
</svg>
